<svg width="138" height="32" viewBox="0 0 138 32" fill="none" xmlns="http://www.w3.org/2000/svg">
<circle cx="16" cy="16" r="14.5" stroke="#111111" stroke-width="3"/>
<circle cx="22" cy="22" r="5.5" stroke="#111111" stroke-width="3"/>
<path d="M8 12L13 17" stroke="#111111" stroke-width="3"/>
<path d="M12 8L17 13" stroke="#111111" stroke-width="3"/>
<path d="M59.7734 8V24H56.8516L49.8906 13.9297H49.7734V24H46.3906V8H49.3594L56.2656 18.0625H56.4063V8H59.7734ZM62.5684 24V8H73.1621V10.7891H65.9512V14.6016H72.459V17.3906H65.9512V24H62.5684ZM74.8281 10.7891V8H87.9688V10.7891H83.0703V24H79.7266V10.7891H74.8281ZM91.0625 24L87.7969 12H91.1641L93.0234 20.0625H93.1328L95.0703 12H98.375L100.344 20.0156H100.445L102.273 12H105.633L102.375 24H98.8516L96.7891 16.4531H96.6406L94.5781 24H91.0625ZM112.529 24.2344C111.316 24.2344 110.266 23.9766 109.381 23.4609C108.501 22.9401 107.821 22.2161 107.342 21.2891C106.863 20.3568 106.623 19.276 106.623 18.0469C106.623 16.8073 106.863 15.724 107.342 14.7969C107.821 13.8646 108.501 13.1406 109.381 12.625C110.266 12.1042 111.316 11.8438 112.529 11.8438C113.743 11.8438 114.79 12.1042 115.67 12.625C116.555 13.1406 117.238 13.8646 117.717 14.7969C118.196 15.724 118.436 16.8073 118.436 18.0469C118.436 19.276 118.196 20.3568 117.717 21.2891C117.238 22.2161 116.555 22.9401 115.67 23.4609C114.79 23.9766 113.743 24.2344 112.529 24.2344ZM112.545 21.6562C113.097 21.6562 113.558 21.5 113.928 21.1875C114.298 20.8698 114.576 20.4375 114.764 19.8906C114.956 19.3437 115.053 18.7214 115.053 18.0234C115.053 17.3255 114.956 16.7031 114.764 16.1562C114.576 15.6094 114.298 15.1771 113.928 14.8594C113.558 14.5417 113.097 14.3828 112.545 14.3828C111.988 14.3828 111.519 14.5417 111.139 14.8594C110.764 15.1771 110.48 15.6094 110.287 16.1562C110.1 16.7031 110.006 17.3255 110.006 18.0234C110.006 18.7214 110.1 19.3437 110.287 19.8906C110.48 20.4375 110.764 20.8698 111.139 21.1875C111.519 21.5 111.988 21.6562 112.545 21.6562ZM122.666 24L119.4 12H122.768L124.627 20.0625H124.736L126.674 12H129.979L131.947 20.0156H132.049L133.877 12H137.236L133.979 24H130.455L128.393 16.4531H128.244L126.182 24H122.666Z" fill="#111111"/>
</svg>
